<svg width="156" height="106" viewBox="0 0 156 106" fill="none" xmlns="http://www.w3.org/2000/svg">
<g clip-path="url(#clip0_1_56)">
<path d="M120.282 106C96.3516 106 82.7574 76.3134 81.2861 72.928C78.6018 66.7511 81.2782 59.4992 87.2619 56.729C93.244 53.9572 100.274 56.7209 102.958 62.8961C106.394 70.6716 114.263 85.0019 123.201 85.0019C131.52 85.0019 132.766 79.9066 132.904 77.0775C133.215 70.67 128.428 63.1203 102.288 42.8847C87.2016 31.2051 70.3366 17.3002 70.1828 17.2118C64.4432 13.9376 62.3598 12.2588 65.5309 6.33559C68.7019 0.412343 75.9223 -1.73934 81.665 1.53154C82.3452 1.9177 98.4936 11.1576 114.883 23.819C139.511 42.8438 156 59.3814 156 74.3728C156 92.9967 142.863 106.003 120.282 106.003V106Z" fill="white"/>
<path d="M31.2013 106C12.83 106 0 92.9934 0 74.3711C0 59.3797 11.9722 42.8421 36.5999 23.8173C52.9894 11.1543 69.1394 1.91603 69.818 1.52988C75.5623 -1.74428 82.7843 0.410675 85.9537 6.33556C89.1247 12.2621 87.0382 13.9392 81.2971 17.2118C80.9974 17.3836 63.6599 29.5148 48.6466 41.1371C22.5079 61.3743 22.2685 70.7485 22.0846 73.2257C21.8769 76.0287 22.8044 84.0758 30.6273 84.0758C42.0969 84.0758 46.7329 68.9731 49.4616 62.6932C52.1459 56.5179 58.2358 53.9588 64.2227 56.729C70.208 59.4992 72.8812 66.7527 70.1985 72.9296C68.7271 76.315 55.1314 106.002 31.2013 106.002V106Z" fill="white"/>
</g>
<defs>
<clipPath id="clip0_1_56">
<rect width="156" height="106" fill="white"/>
</clipPath>
</defs>
</svg>
