<svg width="750" height="750" viewBox="0 0 750 750" fill="none" xmlns="http://www.w3.org/2000/svg">
<g clip-path="url(#clip0_12_28)">
<path d="M150.006 625.79C61.6825 625.79 0 565.174 0 478.387C0 408.522 57.5586 331.45 175.961 242.788C254.757 183.773 332.401 140.719 335.663 138.92C363.28 123.661 387.762 118.388 403 146C418.245 173.62 418.453 196.752 390.851 212.003C389.411 212.804 306.057 269.34 233.878 323.504C108.211 417.818 107.06 461.504 106.176 473.05C105.177 486.112 109.637 523.615 147.247 523.615C202.389 523.615 224.678 453.231 237.796 423.964C250.701 395.185 279.98 383.258 308.763 396.169C337.538 409.079 350.39 442.883 337.493 471.669C330.419 487.447 265.055 625.797 150.006 625.797V625.79Z" fill="white"/>
<path d="M600.317 625.79C688.64 625.79 750.323 565.174 750.323 478.387C750.323 408.522 692.764 331.45 574.362 242.788C495.566 183.773 417.922 140.719 414.659 138.92C387.043 123.661 363.5 117.5 338 146C322.755 173.62 331.87 196.752 359.472 212.003C360.912 212.804 444.266 269.34 516.445 323.504C642.112 417.818 643.263 461.504 644.147 473.05C645.146 486.112 640.686 523.615 603.076 523.615C547.934 523.615 525.645 453.231 512.527 423.964C499.622 395.185 470.343 383.258 441.56 396.169C412.784 409.079 399.933 442.883 412.83 471.669C419.904 487.447 485.268 625.797 600.317 625.797V625.79Z" fill="white"/>
</g>
<defs>
<clipPath id="clip0_12_28">
<rect width="750" height="750" fill="white"/>
</clipPath>
</defs>
</svg>
